<?xml version="1.0" encoding="UTF-8" standalone="no"?>
<svg xmlns="http://www.w3.org/2000/svg" height="296.01" width="190" version="1.1" viewBox="0 0 50.270091 78.320374">
  <g aria-label="sdltm" style="font-variant-ligatures:normal;font-variant-numeric:normal;font-feature-settings:normal;font-variant-caps:normal;fill:#898989" transform="matrix(.56571 0 0 .57602 -32.435 -50.283)">
    <path d="m72.398 98.599 3.8971-0.36656q0.24116 0.69453 0.67524 0.99357 0.43408 0.29903 1.1576 0.29903 0.79099 0 1.2251-0.33762 0.33762-0.2508 0.33762-0.62701 0-0.42444-0.44373-0.65595-0.31833-0.16399-1.6881-0.40514-2.045-0.35691-2.8456-0.65595-0.79099-0.30868-1.3408-1.0322-0.54019-0.72347-0.54019-1.6495 0-1.0129 0.58842-1.746 0.58842-0.73312 1.6206-1.09 1.0322-0.36656 2.7685-0.36656 1.8328 0 2.701 0.27974 0.87781 0.27974 1.4566 0.86816 0.58842 0.58842 0.97427 1.5916l-3.7235 0.36656q-0.14469-0.49196-0.48231-0.72347-0.46302-0.30868-1.119-0.30868-0.66559 0-0.97427 0.24116-0.29903 0.23151-0.29903 0.56913 0 0.3762 0.38585 0.56913t1.6785 0.34727q1.9582 0.22186 2.9132 0.61736 0.95498 0.3955 1.4566 1.1286 0.51125 0.73312 0.51125 1.6109 0 0.88746-0.54019 1.7267-0.53054 0.83923-1.6881 1.3408-1.1479 0.49196-3.135 0.49196-2.8071 0-4.0032-0.80064-1.1865-0.80064-1.5241-2.2765z" style="font-variant-numeric:normal;font-variant-ligatures:normal;font-variant-caps:normal;font-feature-settings:normal;stroke-width:.26458px;fill:#898989"/>
    <path d="m95.954 87.294v14.141h-3.6752v-1.5145q-0.7717 0.96463-1.4084 1.3022-0.84887 0.44373-1.8907 0.44373-2.0932 0-3.2026-1.5916-1.0997-1.5916-1.0997-3.8682 0-2.5466 1.2154-3.8971 1.2251-1.3505 3.1061-1.3505 0.9164 0 1.6592 0.30868 0.75241 0.30868 1.3312 0.92604v-4.9003zm-3.9357 8.9903q0-1.2058-0.51125-1.7942-0.51125-0.59807-1.2926-0.59807-0.68488 0-1.1479 0.56913t-0.46302 1.91q0 1.254 0.47267 1.8424 0.48231 0.57878 1.1865 0.57878 0.75241 0 1.254-0.58842 0.50161-0.58842 0.50161-1.9196z" style="font-variant-numeric:normal;font-variant-ligatures:normal;font-variant-caps:normal;font-feature-settings:normal;stroke-width:.26458px;fill:#898989"/>
    <path d="m98.5 87.294h3.9357v14.141h-3.94z" style="font-variant-numeric:normal;font-variant-ligatures:normal;font-variant-caps:normal;font-feature-settings:normal;stroke-width:.26458px;fill:#898989"/>
    <path d="m109.7 87.294v3.8971h2.1608v2.865h-2.16v3.6366q0 0.65595 0.1254 0.86816 0.19293 0.32797 0.67524 0.32797 0.43409 0 1.2154-0.2508l0.28939 2.7106q-1.4566 0.31833-2.7202 0.31833-1.4662 0-2.1608-0.37621-0.69453-0.3762-1.0322-1.1383-0.32797-0.7717-0.32797-2.4887v-3.6077h-1.4469v-2.8649h1.4469v-1.881z" style="font-variant-numeric:normal;font-variant-ligatures:normal;font-variant-caps:normal;font-feature-settings:normal;stroke-width:.26458px;fill:#898989"/>
    <path d="m113.75 91.191h3.6656v1.4952q0.79099-0.93569 1.5916-1.3312 0.81029-0.3955 1.9486-0.3955 1.2251 0 1.9389 0.43408 0.71382 0.43408 1.1672 1.2926 0.92604-1.0032 1.6881-1.3601 0.76206-0.36656 1.881-0.36656 1.6495 0 2.5756 0.98392 0.92604 0.97427 0.92604 3.0579v6.4341h-3.9357v-5.836q0-0.69453-0.27009-1.0322-0.3955-0.53054-0.98392-0.53054-0.69453 0-1.119 0.50161-0.42443 0.50161-0.42443 1.6109v5.2862h-3.94v-5.6431q0-0.67524-0.0772-0.9164-0.1254-0.38585-0.43408-0.61736-0.30868-0.24116-0.72347-0.24116-0.67524 0-1.1093 0.51125-0.43409 0.51125-0.43409 1.6784v5.2283h-3.9357z" style="font-variant-numeric:normal;font-variant-ligatures:normal;font-variant-caps:normal;font-feature-settings:normal;stroke-width:.26458px;fill:#898989"/>
  </g>
  <g aria-label="tmx1.4 " style="font-variant-ligatures:normal;font-variant-numeric:normal;font-feature-settings:normal;font-variant-caps:normal;fill:#898989" transform="matrix(.14968 0 0 .15241 -32.804 -53.475)">
    <path d="m268.1 810.42v14.729h8.1667v10.828h-8.17v13.745q0 2.4792 0.47396 3.2812 0.72916 1.2396 2.5521 1.2396 1.6406 0 4.5938-0.94792l1.0938 10.245q-5.5052 1.2031-10.281 1.2031-5.5417 0-8.1667-1.4219t-3.901-4.3021q-1.2396-2.9167-1.2396-9.4062v-13.635h-5.4688v-10.828h5.4688v-7.1094z" style="fill:#898989"/>
    <path d="m283.41 825.15h13.854v5.651q2.9896-3.5364 6.0156-5.0312 3.0625-1.4948 7.3646-1.4948 4.6302 0 7.3281 1.6406t4.4114 4.8854q3.5-3.7917 6.3802-5.1406 2.8802-1.3854 7.1094-1.3854 6.2344 0 9.7344 3.7188 3.5 3.6823 3.5 11.557v24.318h-14.875v-22.06q0-2.625-1.0208-3.901-1.4948-2.0052-3.7188-2.0052-2.625 0-4.2292 1.8958t-1.6042 6.0885v19.979h-14.875v-21.328q0-2.5521-0.29167-3.4636-0.47396-1.4583-1.6406-2.3333-1.1667-0.91146-2.7344-0.91146-2.5521 0-4.1927 1.9323t-1.6406 6.3438v19.76h-14.875z" style="fill:#898989"/>
    <path d="m354.62 825.15h17.609l6.1615 10.792 7.1458-10.792h16.37l-13.198 18.448 14.146 20.271h-17.318l-7.1458-12.469-8.4219 12.469h-16.078l14.073-20.271z" style="fill:#898989"/>
    <path d="m440.07 809.51v54.359h-15.02v-35.62q-3.6458 2.7708-7.0729 4.4844-3.3906 1.7135-8.5312 3.2812v-12.177q7.5833-2.4427 11.776-5.8698t6.5625-8.4583z" style="fill:#898989"/>
    <path d="m457.76 848.99h15.859v14.875h-15.86z" style="fill:#898989"/>
    <path d="m506.76 853.88h-27.05v-12.21l27.05-32.16h12.943v32.849h6.7083v11.521h-6.7083v9.9896h-12.94zm0-11.521v-16.807l-14.292 16.807z" style="fill:#898989"/>
  </g>
  <path style="opacity:.822;paint-order:markers stroke fill;stroke:#030303;stroke-linecap:square;stroke-width:2.3637;fill:#c8ff74" d="m48.223 12.216-23.088 39.99-23.088-39.99z"/>
  <path style="opacity:.822;fill:#0079ff;paint-order:markers stroke fill" transform="scale(1,-1)" d="m50.27-67.581-25.135 43.536-25.135-43.536z"/>
</svg>
